<svg data-v-423bf9ae="" xmlns="http://www.w3.org/2000/svg" viewBox="0 0 297 90" class="iconLeft"><!----><!----><!----><g data-v-423bf9ae="" id="8164afbc-7e06-41dd-b82e-f81d18fa5629" fill="black" transform="matrix(6.32244483109513,0,0,6.32244483109513,109.73694010143933,1.7228650271440813)"><path d="M5.11 2.10C2.32 2.10 0.55 4.21 0.55 6.85C0.55 9.48 2.25 11.59 5.08 11.59C6.76 11.59 7.85 10.74 8.44 9.84L8.44 11.48L9.41 11.48L9.41 6.55L5.05 6.55L5.05 7.50L8.44 7.50C8.44 9.44 6.85 10.57 5.17 10.57C2.91 10.57 1.60 8.93 1.60 6.85C1.60 4.76 2.94 3.12 5.19 3.12C6.61 3.12 7.62 3.74 8.18 4.73L9.32 4.73C8.64 3.18 7.10 2.10 5.11 2.10ZM19.05 2.21L15.79 6.61L12.47 2.21L11.26 2.21L11.26 11.48L12.31 11.48L12.31 3.81L15.79 8.22L19.22 3.81L19.22 11.48L20.27 11.48L20.27 2.21ZM23.16 4.65C23.16 4.03 23.52 3.08 25.62 3.08C27.31 3.08 28.10 3.82 28.21 4.75L29.29 4.75C29.20 3.36 28.08 2.10 25.62 2.10C23.30 2.10 22.13 3.15 22.13 4.66C22.13 7.84 28.48 6.69 28.48 8.96C28.48 10.05 27.50 10.60 25.93 10.60C24.32 10.60 23.02 10.05 22.95 8.71L21.85 8.71C21.99 10.37 23.11 11.59 25.86 11.59C28.14 11.59 29.53 10.64 29.53 8.92C29.53 5.68 23.16 6.80 23.16 4.65Z"></path></g><!----><g data-v-423bf9ae="" id="b1876d46-7917-4b06-ac11-341b1f647662" transform="matrix(3.2142857142857144,0,0,3.2142857142857144,0.3928571428571388,0)" stroke="none" fill="black"><circle cx="14.5" cy="8.5" r="3.5"></circle><path d="M26 3H3V0H0v7h3V4h3v8a1 1 0 0 0 1 1h4v5H8a2 2 0 0 0-2 2v7a1 1 0 0 0 1 1h1a1 1 0 0 0 1-1v-5h11v5a1 1 0 0 0 1 1h1a1 1 0 0 0 1-1v-7a2 2 0 0 0-2-2h-3v-5h4a1 1 0 0 0 1-1V4h3v3h3V0h-3v3zm-6 7h-1.276c-.621 1.742-2.27 3-4.224 3-1.953 0-3.603-1.258-4.224-3H9V4h11v6z"></path></g><!----></svg>